<?xml version="1.0" encoding="utf-8"?>
<svg fill="#000000" height="800px" width="800px" version="1.1" id="Layer_1" xmlns="http://www.w3.org/2000/svg" xmlns:xlink="http://www.w3.org/1999/xlink" 
	 viewBox="0 0 64 64" enable-background="new 0 0 64 64" xml:space="preserve">
<g id="Coffee-cup_1_">
	<path d="M55.9448242,16.6718998l-2.7759018-8C53.0293236,8.2695999,52.6499214,8,52.2241211,8h-2.4963989l-2.362999-7.3076
		C47.2309227,0.2793,46.8466225,0,46.4130211,0h-28.692297c-0.4283009,0-0.8091011,0.2725-0.9468002,0.6778L14.2837238,8H11.741724
		c-0.4273005,0-0.8077002,0.2714996-0.9458008,0.6758003l-2.7416945,8c-0.105,0.3057003-0.0557051,0.6425991,0.1322947,0.9053001
		C8.3740234,17.8437996,8.6772289,18,9.0000238,18h2.1203995l5.7974997,45.1269989
		C16.9819241,63.6259995,17.406723,64,17.9096241,64h27.9741993c0.5014038,0,0.9251976-0.3711014,0.9911995-0.8680992L52.875721,18
		h2.1243019c0.3237,0,0.6273994-0.1562004,0.8148994-0.4199009C56.0024223,17.3164005,56.050724,16.9776001,55.9448242,16.6718998z
		 M18.4370232,2H45.685524l1.9399986,6H16.3964233L18.4370232,2z M46.4685211,51.0152016L17.374424,50.9847984L14.4214239,28
		h35.107399L46.4685211,51.0152016z M45.0078239,62H18.7895241l-1.1582012-9.0149002l28.5712986,0.0297012L45.0078239,62z
		 M49.7946243,26H14.1645231l-1.0277996-8h37.7216988L49.7946243,26z M52.0000229,16h-40h-1.6001005l2.0560999-6h2.5440006h34
		h2.5126991l2.0820007,6H52.0000229z"/>
	<path d="M32.0009232,31.5645008c-4.4116001,0-8.0009003,3.5888996-8.0009003,7.9999981s3.5893002,8,8.0009003,8
		c4.4107018,0,7.9990997-3.5888977,7.9990997-8S36.4116249,31.5645008,32.0009232,31.5645008z M32.0009232,45.5644989
		c-3.309,0-6.0009003-2.6913986-6.0009003-6c0-3.3085976,2.6919003-6,6.0009003-6c3.3081017,0,5.9990997,2.6914024,5.9990997,6
		C38.0000229,42.8731003,35.3090248,45.5644989,32.0009232,45.5644989z"/>
</g>
</svg>